HIERARCHY
ROOT joint_0
{
	OFFSET 0.000000 0.000000 0.000000
	CHANNELS 6 Xposition Yposition Zposition Zrotation Yrotation Xrotation 
	JOINT joint_1
	{
		OFFSET -0.613770 -1.125488 108.300049
		CHANNELS 3 Zrotation Yrotation Xrotation
		JOINT joint_2
		{
			OFFSET -10.925537 -0.900513 98.259033
			CHANNELS 3 Zrotation Yrotation Xrotation
			JOINT joint_3
			{
				OFFSET -11.287842 0.313599 98.110962
				CHANNELS 3 Zrotation Yrotation Xrotation
				JOINT joint_4
				{
					OFFSET -2.124268 2.484680 136.491943
					CHANNELS 3 Zrotation Yrotation Xrotation
					JOINT joint_5
					{
						OFFSET 16.640869 1.801270 81.862061
						CHANNELS 3 Zrotation Yrotation Xrotation
						End Site
						{
							OFFSET 0.000000 0.000000 0.000000
						}
					}
				}
				JOINT joint_6
				{
					OFFSET 0.447998 -28.248108 77.258057
					CHANNELS 3 Zrotation Yrotation Xrotation
					JOINT joint_7
					{
						OFFSET 7.918701 -130.256348 -24.086060
						CHANNELS 3 Zrotation Yrotation Xrotation
						JOINT joint_8
						{
							OFFSET 62.431885 -29.384277 -258.572021
							CHANNELS 3 Zrotation Yrotation Xrotation
							JOINT joint_9
							{
								OFFSET 53.743164 -21.907532 -238.024963
								CHANNELS 3 Zrotation Yrotation Xrotation
								End Site
								{
									OFFSET 0.000000 0.000000 0.000000
								}
							}
						}
					}
				}
				JOINT joint_10
				{
					OFFSET -2.846924 31.052063 76.130981
					CHANNELS 3 Zrotation Yrotation Xrotation
					JOINT joint_11
					{
						OFFSET 9.073730 131.055603 -18.752930
						CHANNELS 3 Zrotation Yrotation Xrotation
						JOINT joint_12
						{
							OFFSET 52.981201 29.883301 -260.613037
							CHANNELS 3 Zrotation Yrotation Xrotation
							JOINT joint_13
							{
								OFFSET 62.237793 15.935547 -236.423035
								CHANNELS 3 Zrotation Yrotation Xrotation
								End Site
								{
									OFFSET 0.000000 0.000000 0.000000
								}
							}
						}
					}
				}
			}
		}
	}
	JOINT joint_14
	{
		OFFSET 22.046143 -72.816772 -98.122925
		CHANNELS 3 Zrotation Yrotation Xrotation
		JOINT joint_15
		{
			OFFSET -23.673828 -54.692932 -469.927032
			CHANNELS 3 Zrotation Yrotation Xrotation
			JOINT joint_16
			{
				OFFSET -34.875244 -46.505249 -395.890999
				CHANNELS 3 Zrotation Yrotation Xrotation
				JOINT joint_17
				{
					OFFSET 168.486328 14.224182 -74.182999
					CHANNELS 3 Zrotation Yrotation Xrotation
					End Site
					{
						OFFSET 0.000000 0.000000 0.000000
					}
				}
			}
		}
	}
	JOINT joint_18
	{
		OFFSET -1.731934 82.408569 -92.846924
		CHANNELS 3 Zrotation Yrotation Xrotation
		JOINT joint_19
		{
			OFFSET -6.908936 32.203369 -472.535034
			CHANNELS 3 Zrotation Yrotation Xrotation
			JOINT joint_20
			{
				OFFSET -13.963135 23.196533 -399.207993
				CHANNELS 3 Zrotation Yrotation Xrotation
				JOINT joint_21
				{
					OFFSET 168.417725 19.834229 -73.041004
					CHANNELS 3 Zrotation Yrotation Xrotation
					End Site
					{
						OFFSET 0.000000 0.000000 0.000000
					}
				}
			}
		}
	}
}
MOTION
Frames: 12
Frame Time: 0.016667
-2703.428955 939.414185 1029.767944 0.977547 -7.876109 -1.058521 0.398015 8.790873 3.813184 3.725762 -1.100963 -1.006518 4.339300 1.692175 0.232320 0.619272 0.111056 -3.182845 0.000000 0.000000 0.000000 2.972983 1.991158 0.905630 -0.379743 2.564717 -0.156029 0.263466 -1.356459 0.571917 0.000000 0.000000 0.000000 2.971067 2.231491 -2.024662 0.877180 1.541931 3.141285 0.743178 0.299990 2.825556 0.000000 0.000000 0.000000 2.127385 -15.398664 10.191779 -2.567359 19.850688 -2.347048 -0.972640 -0.146814 -0.409915 0.000000 0.000000 0.000000 -3.091091 -10.003243 10.992837 1.736995 62.570684 -9.605649 1.995331 19.145041 -1.714980 0.000000 0.000000 0.000000 
-2690.805908 936.277466 1027.869019 0.838187 -8.385827 -1.399243 0.057001 9.509605 4.201185 3.983700 -1.146640 -1.087443 4.677802 1.760339 0.256163 0.636604 -0.034375 -3.262061 0.000000 0.000000 0.000000 3.168591 1.679254 0.822090 -0.359011 2.284418 -0.284099 0.050080 -0.803843 -0.142766 0.000000 0.000000 0.000000 2.914574 2.378458 -1.909539 0.739785 1.757022 2.186017 0.908559 0.207016 3.541117 0.000000 0.000000 0.000000 2.052069 -15.260790 10.847086 -2.988845 22.366655 -2.299525 -1.095050 -1.887111 -0.306811 0.000000 0.000000 0.000000 -3.059778 -10.902976 11.698807 1.812622 65.051627 -9.391508 2.612943 19.561916 -1.404550 0.000000 0.000000 0.000000 
-2677.526367 933.682861 1027.453979 0.990570 -8.405424 -1.718951 -0.198875 9.459685 4.623342 3.959569 -1.188218 -1.227626 4.746034 1.752393 0.349536 0.628569 0.043694 -3.227508 0.000000 0.000000 0.000000 3.266102 1.475172 0.888084 -0.349139 2.085896 -0.421820 -0.222052 -0.144500 -1.037596 0.000000 0.000000 0.000000 2.921498 2.689449 -1.826547 0.541094 2.140507 0.917204 1.125915 0.297632 4.436131 0.000000 0.000000 0.000000 1.864596 -14.848516 11.453492 -3.240739 23.329350 -2.427377 -1.239728 -2.952694 -0.268324 0.000000 0.000000 0.000000 -2.809566 -12.076465 11.986062 1.890041 66.714871 -8.628021 3.400750 17.649632 -0.586952 0.000000 0.000000 0.000000 
-2664.025146 931.579590 1028.130981 1.298171 -8.117469 -2.005232 -0.360508 8.929209 5.044109 3.751795 -1.210690 -1.389147 4.628484 1.692469 0.479541 0.605435 0.256166 -3.125752 0.000000 0.000000 0.000000 3.283697 1.333243 1.018527 -0.349531 1.932424 -0.554354 -0.531790 0.562745 -2.034395 0.000000 0.000000 0.000000 2.937352 3.084587 -1.781382 0.297686 2.611335 -0.519011 1.361237 0.488125 5.402618 0.000000 0.000000 0.000000 1.608625 -14.288382 11.983786 -3.392812 23.387865 -2.619592 -1.352403 -3.827231 -0.231510 0.000000 0.000000 0.000000 -2.401838 -13.434717 11.935765 1.976761 67.717647 -7.521235 4.182255 14.303036 0.447542 0.000000 0.000000 0.000000 
-2650.912109 929.635803 1029.468018 1.514994 -7.783253 -2.216108 -0.379863 8.316366 5.348801 3.552429 -1.193873 -1.493216 4.476112 1.607821 0.571108 0.585788 0.501138 -3.048641 0.000000 0.000000 0.000000 3.221955 1.233427 1.107717 -0.357201 1.810623 -0.664915 -0.776654 1.100884 -2.807542 0.000000 0.000000 0.000000 2.936072 3.427721 -1.778860 0.105536 3.009936 -1.593401 1.481982 0.595812 5.906760 0.000000 0.000000 0.000000 1.371086 -13.627454 12.431449 -3.424674 23.071987 -2.783141 -1.380788 -4.420456 -0.186334 0.000000 0.000000 0.000000 -1.988545 -14.773266 11.767487 2.039656 68.011866 -6.596719 4.709019 11.443273 1.123414 0.000000 0.000000 0.000000 
-2638.447998 927.741333 1031.500977 1.535104 -7.465911 -2.336125 -0.213832 7.702567 5.490661 3.436289 -1.123227 -1.495223 4.336329 1.494848 0.583945 0.579382 0.771177 -3.048362 0.000000 0.000000 0.000000 3.029062 1.172729 1.117765 -0.362377 1.708434 -0.743152 -0.918472 1.438346 -3.237417 0.000000 0.000000 0.000000 2.894455 3.682792 -1.792177 0.017905 3.295449 -2.083059 1.418433 0.554047 5.635464 0.000000 0.000000 0.000000 1.195290 -12.876256 12.800569 -3.308277 22.477245 -2.908718 -1.300339 -4.637499 -0.131953 0.000000 0.000000 0.000000 -1.639511 -16.037114 11.563309 2.057921 67.503035 -6.082127 4.855910 9.780634 1.227391 0.000000 0.000000 0.000000 
-2626.371826 926.007385 1034.193970 1.465656 -7.107245 -2.381947 0.083359 7.012895 5.506195 3.340076 -1.013897 -1.434624 4.167438 1.354484 0.556590 0.576292 1.075135 -3.073711 0.000000 0.000000 0.000000 2.754890 1.155442 1.073096 -0.363030 1.637903 -0.789128 -0.986468 1.619917 -3.436340 0.000000 0.000000 0.000000 2.836159 3.892087 -1.804403 -0.013754 3.521113 -2.253975 1.243629 0.419993 4.909008 0.000000 0.000000 0.000000 1.053006 -12.019933 13.072411 -3.076494 21.502315 -2.999870 -1.141388 -4.572115 -0.071347 0.000000 0.000000 0.000000 -1.309449 -17.225909 11.260378 2.069146 66.246981 -5.775900 4.779604 8.571925 1.089254 0.000000 0.000000 0.000000 
-2614.513916 924.441528 1037.010010 1.377725 -6.792062 -2.375626 0.391519 6.436451 5.440986 3.265510 -0.914343 -1.374451 4.016082 1.232854 0.527012 0.564909 1.337780 -3.052795 0.000000 0.000000 0.000000 2.545676 1.173487 0.965482 -0.363185 1.619843 -0.807561 -0.973101 1.562195 -3.411994 0.000000 0.000000 0.000000 2.797505 4.039749 -1.793697 -0.036078 3.679435 -2.347000 1.048223 0.191606 4.143909 0.000000 0.000000 0.000000 0.916411 -11.061022 13.217849 -2.799051 20.385832 -2.985849 -0.939598 -4.417661 -0.001679 0.000000 0.000000 0.000000 -0.975394 -18.225731 10.899326 2.140146 64.491416 -5.560321 4.734160 7.324382 1.018242 0.000000 0.000000 0.000000 
-2602.809326 922.988770 1039.906006 1.285683 -6.577881 -2.290319 0.682391 6.073998 5.265499 3.217367 -0.844385 -1.339225 3.899439 1.148395 0.510333 0.537375 1.530584 -2.938442 0.000000 0.000000 0.000000 2.467799 1.239739 0.775522 -0.360505 1.681864 -0.770492 -0.861658 1.177547 -3.131176 0.000000 0.000000 0.000000 2.794638 4.114593 -1.732613 -0.064016 3.762791 -2.437375 0.831101 -0.192372 3.360010 0.000000 0.000000 0.000000 0.780247 -9.953814 13.175522 -2.487182 19.176068 -2.805323 -0.694989 -4.206159 0.079982 0.000000 0.000000 0.000000 -0.647444 -18.902452 10.511077 2.283502 62.148136 -5.490976 4.727657 5.902904 1.048709 0.000000 0.000000 0.000000 
-2591.323242 921.705139 1042.923950 1.166787 -6.412824 -2.150936 0.985901 5.841006 5.013510 3.194945 -0.794736 -1.306917 3.807268 1.088056 0.492652 0.502584 1.680028 -2.780708 0.000000 0.000000 0.000000 2.453032 1.340797 0.526317 -0.361405 1.795794 -0.710408 -0.672574 0.552102 -2.629870 0.000000 0.000000 0.000000 2.808637 4.126936 -1.650691 -0.084784 3.777848 -2.447394 0.591934 -0.666982 2.539270 0.000000 0.000000 0.000000 0.658686 -8.740682 13.000360 -2.135100 17.819825 -2.512881 -0.419420 -3.889100 0.164888 0.000000 0.000000 0.000000 -0.319024 -19.324830 10.072290 2.483612 59.173853 -5.524413 4.712784 4.630286 1.113953 0.000000 0.000000 0.000000 
-2580.081543 920.769104 1045.650024 1.050021 -6.214538 -2.058710 1.272890 5.632436 4.833465 3.180837 -0.750547 -1.276541 3.729156 1.037288 0.477321 0.476148 1.794415 -2.662755 0.000000 0.000000 0.000000 2.447799 1.429981 0.269037 -0.383136 1.900047 -0.721182 -0.454499 -0.136016 -2.019587 0.000000 0.000000 0.000000 2.832860 4.093614 -1.606321 -0.093198 3.740750 -2.403363 0.434206 -1.043393 2.034771 0.000000 0.000000 0.000000 0.542873 -7.558455 12.844833 -1.787322 16.410536 -2.216832 -0.160236 -3.561815 0.242664 0.000000 0.000000 0.000000 0.071252 -19.722252 9.531536 2.770784 55.929277 -5.382928 4.874751 3.600319 1.270104 0.000000 0.000000 0.000000 
-2569.132324 920.329285 1047.999023 0.934651 -5.964020 -2.052753 1.545747 5.434453 4.799993 3.178913 -0.716451 -1.251633 3.672294 0.995284 0.462176 0.466242 1.876024 -2.628095 0.000000 0.000000 0.000000 2.430752 1.499350 -0.004134 -0.435865 1.982727 -0.840770 -0.208951 -0.869776 -1.290187 0.000000 0.000000 0.000000 2.872365 4.005574 -1.617152 -0.082190 3.643092 -2.332031 0.426984 -1.243818 2.080284 0.000000 0.000000 0.000000 0.427713 -6.417376 12.766585 -1.443999 14.923973 -1.959149 0.074559 -3.236539 0.311235 0.000000 0.000000 0.000000 0.610366 -20.163374 8.796319 3.216676 52.459178 -4.866613 5.396991 2.903354 1.555124 0.000000 0.000000 0.000000 
